# xmcd
#
# Track frame offsets:
#	150
#	13172
#	25365
#	38332
#	53627
#	67812
#	81712
#	94712
#	108090
#	121997
#	137242
#	151960
#	164210
#	177770
#	190500
#	204032
#	215550
#	230437
#	243787
#	254625
#
# Disc length: 3704 seconds
# Revision: 0
# Processed by: cddbd v1.5.2PL0 Copyright (c) Steve Scherf et al.
# Submitted via: dBpowerAMP V12.0
#
DISCID=080e7614
DTITLE=Muddy Waters - The Best of Muddy Waters
DYEAR=1955
DGENRE=Blues
TTITLE0=I Just Want to Make Love to You
TTITLE1=Long Distance Call
TTITLE2=Louisiana Blues
TTITLE3=Honey Bee
TTITLE4=Rollin' Stone
TTITLE5=I'm Ready
TTITLE6=Hoochie Coochie Man
TTITLE7=She Moves Me
TTITLE8=I Want You to Love Me
TTITLE9=Standing Around Crying
TTITLE10=Still a Fool
TTITLE11=I Can't Be Satisfied
TTITLE12=Rollin' Stone (Alt. Take)
TTITLE13=Hoochie Coochie Man (Alt. Take)
TTITLE14=Rollin' and Tumblin' (Part 1)
TTITLE15=Rollin' and Tumblin' (Part 2)
TTITLE16=Baby Please Don't Go
TTITLE17=Mannish Boy
TTITLE18=Look What You've Done
TTITLE19=Got My Mojo Workin' (Part 2)
EXTD=
EXTT0=
EXTT1=
EXTT2=
EXTT3=
EXTT4=
EXTT5=
EXTT6=
EXTT7=
EXTT8=
EXTT9=
EXTT10=
EXTT11=
EXTT12=
EXTT13=
EXTT14=
EXTT15=
EXTT16=
EXTT17=
EXTT18=
EXTT19=
PLAYORDER=
